<?xml version="1.0" standalone="no"?>
<!DOCTYPE svg PUBLIC "-//W3C//DTD SVG 20010904//EN"
 "http://www.w3.org/TR/2001/REC-SVG-20010904/DTD/svg10.dtd">
<svg version="1.0" xmlns="http://www.w3.org/2000/svg"
 width="128.000000pt" height="128.000000pt" viewBox="0 0 128.000000 128.000000"
 preserveAspectRatio="xMidYMid meet">
<metadata>
Created by potrace 1.14, written by Peter Selinger 2001-2017
</metadata>
<g transform="translate(0.000000,128.000000) scale(0.100000,-0.100000)"
fill="#000000" stroke="none">
<path d="M334 1000 c-37 -15 -70 -66 -84 -129 -13 -64 -30 -81 -30 -31 0 24
-4 30 -22 31 -27 2 -108 1 -125 0 -9 -1 -13 -19 -13 -55 0 -61 3 -62 105 -73
28 -3 52 -7 54 -9 3 -3 -9 -17 -26 -32 -46 -43 -56 -88 -57 -254 -1 -178 -1
-177 114 -178 85 0 117 14 122 57 l3 26 265 0 265 1 3 -27 c5 -43 36 -57 122
-57 115 1 115 0 114 178 -1 164 -10 208 -55 249 -16 15 -29 31 -29 34 0 3 26
9 57 13 104 12 103 11 103 72 0 44 -3 54 -17 55 -22 1 -113 1 -130 0 -8 -1
-13 -15 -13 -33 0 -46 -20 -22 -31 38 -11 60 -45 111 -83 124 -35 12 -582 13
-612 0z m-154 -194 c0 -25 -3 -28 -22 -22 -13 3 -31 6 -40 6 -12 0 -18 8 -18
23 0 19 5 22 40 22 37 0 40 -2 40 -29z m1000 7 c0 -15 -6 -23 -17 -23 -10 0
-28 -3 -40 -6 -19 -5 -23 -2 -23 18 0 32 2 33 44 33 31 0 36 -3 36 -22z"/>
</g>
</svg>
